<mxfile host="app.diagrams.net" modified="2023-12-05T12:28:01.767Z" agent="Mozilla/5.0 (Macintosh; Intel Mac OS X 10_15_7) AppleWebKit/537.36 (KHTML, like Gecko) Chrome/106.0.0.0 Safari/537.36" etag="e3cXgOnj6C_Ca9t8Mr_a" version="22.1.5" type="device">
  <diagram name="第 1 页" id="kAU1HyfLedWER9FA0Oaq">
    <mxGraphModel dx="1301" dy="833" grid="1" gridSize="10" guides="1" tooltips="1" connect="1" arrows="1" fold="1" page="1" pageScale="1" pageWidth="827" pageHeight="1169" math="0" shadow="0">
      <root>
        <mxCell id="0" />
        <mxCell id="1" parent="0" />
        <mxCell id="FmupOQx5CqBQ_d39OQ0t-1" value="" style="ellipse;whiteSpace=wrap;html=1;fillColor=#09555B;strokeColor=#BAC8D3;labelBackgroundColor=none;fontColor=#EEEEEE;rounded=1;" vertex="1" parent="1">
          <mxGeometry x="290" y="370" width="130" height="90" as="geometry" />
        </mxCell>
      </root>
    </mxGraphModel>
  </diagram>
</mxfile>
